<svg xmlns="http://www.w3.org/2000/svg" xmlns:xlink="http://www.w3.org/1999/xlink" width="500" zoomAndPan="magnify" viewBox="0 0 375 374.999991" height="500" preserveAspectRatio="xMidYMid meet" version="1.0"><defs><g/><clipPath id="7e2b0661b9"><path d="M 55 105.273438 L 325.4375 105.273438 L 325.4375 218 L 55 218 Z M 55 105.273438 " clip-rule="nonzero"/></clipPath><clipPath id="2fd4c6415c"><path d="M 133 222 L 178 222 L 178 239.703125 L 133 239.703125 Z M 133 222 " clip-rule="nonzero"/></clipPath><clipPath id="e55c7b49a7"><path d="M 53.277344 222 L 87 222 L 87 239 L 53.277344 239 Z M 53.277344 222 " clip-rule="nonzero"/></clipPath></defs><g clip-path="url(#7e2b0661b9)"><path fill="#00bf63" d="M 138.824219 184.113281 C 155.363281 181.472656 171.085938 174.980469 175.988281 158.015625 C 178.964844 147.710938 181.03125 128.761719 170.0625 122.0625 C 161.332031 116.730469 148.839844 118.105469 139.089844 118.082031 C 122.765625 118.042969 106.441406 120.429688 90.816406 125.140625 C 83.0625 127.480469 76.734375 129.625 71.351562 134.136719 C 70.207031 135.09375 67.746094 137.386719 65.308594 140.851562 C 60.671875 147.4375 58.867188 154.523438 58.101562 159.15625 C 57.949219 162.757812 57.734375 170.78125 61.734375 177.792969 C 62.765625 179.597656 64 181.234375 65.800781 182.566406 C 68.695312 184.707031 72.289062 185.488281 76.492188 185.617188 C 96.894531 186.226562 118.609375 187.335938 138.824219 184.113281 Z M 61.359375 212.492188 C 57.542969 208.703125 56.660156 203.640625 56.152344 195.671875 C 54.914062 176.199219 56.925781 160.921875 57.804688 157.8125 C 58.132812 155.136719 58.683594 151.71875 59.566406 147.714844 C 61.097656 140.753906 64.195312 133.046875 65.921875 127.269531 C 69.890625 113.976562 101.765625 111.941406 113.8125 109.820312 C 138.160156 105.535156 156.363281 105.277344 164.417969 105.339844 C 173.972656 105.410156 179.871094 106.007812 184.28125 106.621094 C 195.40625 108.164062 204.152344 110.796875 212.46875 113.664062 C 235.300781 121.539062 252.945312 130.550781 256.46875 132.328125 C 300.429688 154.515625 325.65625 170.535156 325.21875 171.324219 C 324.820312 172.039062 304.144531 158 273.96875 155.304688 C 267.515625 154.730469 252.214844 153.363281 250.265625 158.507812 C 247.5 165.816406 273.449219 181.519531 274.609375 182.214844 C 289.027344 190.835938 302.007812 194.203125 305.636719 194.894531 C 299.144531 194.28125 262.675781 191.175781 240.015625 166.195312 C 235.007812 160.679688 228.773438 151.996094 220.796875 152.746094 C 217.027344 153.097656 213.707031 155.492188 205.421875 166.195312 C 192.5 182.890625 187.007812 194.75 186.203125 194.386719 C 185.269531 193.960938 189.65625 176.597656 201.578125 159.148438 C 210.148438 146.605469 219.808594 138.121094 226.859375 132.816406 C 222.304688 130.546875 215.683594 127.871094 207.34375 126.476562 C 201.96875 125.582031 197.132812 125.425781 193.09375 125.589844 C 195.519531 126.605469 197.21875 129 197.21875 131.792969 L 197.21875 158.230469 C 197.21875 161.945312 194.207031 164.957031 190.492188 164.957031 C 188.519531 164.957031 186.742188 164.105469 185.511719 162.753906 C 184.6875 170.085938 183.832031 177.417969 182.941406 184.742188 C 181.933594 193.085938 180.886719 201.425781 179.796875 209.757812 C 178.773438 217.664062 140.410156 216.890625 135.101562 217.125 C 115.558594 217.976562 95.980469 217.96875 76.441406 217.097656 C 68.824219 216.757812 64.238281 215.339844 61.359375 212.492188 " fill-opacity="1" fill-rule="nonzero"/></g><path fill="#00bf63" d="M 306.640625 195.027344 C 306.632812 195.054688 306.28125 195.019531 305.636719 194.894531 C 306.300781 194.957031 306.652344 194.996094 306.640625 195.027344 " fill-opacity="1" fill-rule="nonzero"/><g clip-path="url(#2fd4c6415c)"><path fill="#00bf63" d="M 137.40625 226.328125 C 137.6875 225.480469 138.460938 224.890625 139.351562 224.84375 C 150.101562 224.253906 160.277344 223.332031 169.816406 222.183594 C 173.792969 221.707031 177.292969 224.804688 177.292969 228.808594 L 177.292969 230.40625 C 177.292969 233.828125 174.703125 236.695312 171.300781 237.046875 C 160.371094 238.160156 148.625 238.996094 136.152344 239.390625 C 134.640625 239.4375 133.542969 237.96875 134.019531 236.53125 L 137.40625 226.328125 " fill-opacity="1" fill-rule="nonzero"/></g><g clip-path="url(#e55c7b49a7)"><path fill="#00bf63" d="M 53.242188 228.96875 C 53.242188 228.921875 53.246094 228.878906 53.246094 228.832031 C 53.429688 224.984375 56.832031 222.085938 60.660156 222.523438 C 67.636719 223.316406 74.96875 223.996094 82.625 224.503906 C 83.589844 224.570312 84.394531 225.257812 84.605469 226.199219 L 86.726562 235.722656 C 87.042969 237.140625 85.902344 238.464844 84.449219 238.363281 C 75.582031 237.730469 67.113281 236.890625 59.089844 235.90625 C 55.621094 235.484375 53.074219 232.457031 53.242188 228.96875 " fill-opacity="1" fill-rule="nonzero"/></g><path fill="#00bf63" d="M 82.152344 137.769531 L 148.777344 169.15625 C 148.777344 169.15625 126.996094 160.832031 82.152344 137.769531 " fill-opacity="1" fill-rule="nonzero"/><path fill="#00bf63" d="M 158.796875 169.15625 C 158.796875 169.15625 137.015625 160.832031 92.171875 137.769531 L 158.796875 169.15625 " fill-opacity="1" fill-rule="nonzero"/><g fill="#00bf63" fill-opacity="1"><g transform="translate(189.686489, 228.152905)"><g><path d="M 7.847656 2.5625 C 7.769531 2.640625 7.613281 2.640625 7.457031 2.640625 C 7.300781 2.640625 7.148438 2.640625 6.992188 2.71875 C 7.070312 2.484375 7.222656 2.40625 7.378906 2.40625 C 7.535156 2.40625 7.691406 2.40625 7.769531 2.40625 C 7.847656 2.40625 7.921875 2.484375 8 2.5625 C 7.921875 2.640625 7.847656 2.640625 7.691406 2.640625 L 7.921875 3.105469 C 8 3.03125 8.078125 2.953125 8.15625 2.796875 C 8.234375 2.640625 8.3125 2.5625 8.46875 2.5625 L 8.621094 2.5625 L 8.621094 2.484375 C 8.621094 2.253906 8.699219 2.175781 8.855469 2.175781 C 9.011719 2.175781 9.167969 2.097656 9.320312 2.019531 C 9.011719 2.019531 8.855469 2.019531 8.855469 1.941406 C 9.011719 1.785156 9.320312 1.632812 9.789062 1.476562 C 10.253906 1.320312 10.640625 1.242188 10.953125 1.242188 L 11.109375 1.242188 C 11.339844 1.242188 11.574219 1.242188 11.808594 1.164062 C 12.039062 1.085938 12.195312 1.011719 12.351562 0.933594 C 12.429688 1.164062 12.507812 1.242188 12.585938 1.242188 C 12.585938 1.164062 12.507812 1.011719 12.429688 0.777344 C 12.507812 0.777344 12.660156 0.777344 12.972656 0.699219 C 13.285156 0.621094 13.515625 0.542969 13.75 0.464844 C 13.984375 0.386719 14.214844 0.3125 14.449219 0.234375 C 14.683594 0.15625 14.757812 0.078125 14.757812 0 L 14.914062 0.15625 C 14.992188 0.078125 15.070312 0 15.226562 -0.078125 C 15.382812 -0.15625 15.457031 -0.234375 15.535156 -0.3125 C 15.613281 -0.3125 15.613281 -0.234375 15.613281 -0.15625 C 15.535156 -0.078125 15.457031 0 15.382812 0.078125 C 15.304688 0.15625 15.226562 0.234375 15.148438 0.3125 L 16.078125 0.078125 C 16.003906 0 15.925781 -0.078125 15.847656 -0.078125 C 16.003906 -0.15625 16.234375 -0.3125 16.625 -0.464844 C 17.011719 -0.621094 17.246094 -0.699219 17.324219 -0.699219 C 17.324219 -0.621094 17.324219 -0.542969 17.324219 -0.464844 C 17.324219 -0.386719 17.324219 -0.3125 17.324219 -0.234375 L 17.554688 -0.234375 C 17.554688 -0.15625 17.402344 -0.078125 17.167969 0 C 17.246094 0 17.246094 0 17.246094 0 C 17.246094 0 17.246094 0 17.324219 0 C 17.554688 -0.078125 18.023438 -0.3125 18.722656 -0.621094 C 19.421875 -0.933594 20.121094 -1.242188 20.820312 -1.554688 L 20.820312 -1.242188 C 20.894531 -1.320312 21.128906 -1.398438 21.441406 -1.476562 L 21.441406 -1.398438 C 21.59375 -1.476562 21.75 -1.554688 21.90625 -1.632812 C 22.0625 -1.710938 22.140625 -1.785156 22.21875 -1.863281 C 22.292969 -1.863281 22.292969 -1.863281 22.292969 -1.785156 C 22.21875 -1.710938 22.140625 -1.632812 22.0625 -1.554688 C 22.292969 -1.554688 22.527344 -1.632812 22.761719 -1.785156 C 22.992188 -1.941406 23.226562 -2.097656 23.460938 -2.175781 C 23.382812 -2.253906 23.304688 -2.253906 23.304688 -2.253906 C 23.304688 -2.253906 23.226562 -2.253906 23.148438 -2.332031 C 23.226562 -2.40625 23.304688 -2.40625 23.382812 -2.40625 C 23.460938 -2.40625 23.539062 -2.40625 23.613281 -2.484375 C 23.539062 -2.5625 23.460938 -2.5625 23.460938 -2.484375 C 23.460938 -2.40625 23.460938 -2.40625 23.460938 -2.484375 C 23.539062 -2.484375 23.613281 -2.484375 23.691406 -2.484375 C 23.769531 -2.484375 23.847656 -2.484375 23.925781 -2.484375 C 24.003906 -2.484375 24.160156 -2.5625 24.390625 -2.640625 C 24.3125 -2.640625 24.3125 -2.640625 24.3125 -2.71875 C 24.390625 -2.71875 24.46875 -2.71875 24.546875 -2.796875 C 24.625 -2.796875 24.625 -2.796875 24.625 -2.796875 C 24.625 -2.796875 24.625 -2.796875 24.703125 -2.796875 C 24.625 -2.875 24.546875 -2.875 24.46875 -2.875 C 24.546875 -2.953125 24.625 -3.03125 24.703125 -3.105469 C 24.78125 -3.03125 24.78125 -2.953125 24.78125 -2.875 C 24.78125 -2.796875 24.78125 -2.71875 24.859375 -2.640625 C 24.9375 -2.71875 25.011719 -2.796875 25.089844 -2.875 C 25.167969 -2.953125 25.246094 -3.03125 25.324219 -3.105469 C 25.246094 -3.105469 25.167969 -3.105469 25.089844 -3.03125 C 25.089844 -3.105469 25.089844 -3.183594 25.167969 -3.261719 L 25.246094 -3.261719 C 25.710938 -3.261719 26.101562 -3.496094 26.488281 -3.960938 C 26.878906 -4.429688 27.65625 -4.894531 28.820312 -5.4375 C 28.820312 -5.359375 28.820312 -5.28125 28.898438 -5.203125 L 30.0625 -5.902344 C 30.0625 -5.980469 29.984375 -6.058594 29.90625 -6.136719 C 30.449219 -6.136719 30.996094 -6.449219 31.539062 -7.070312 C 32.082031 -7.691406 32.625 -8.15625 33.167969 -8.546875 C 33.167969 -8.46875 33.167969 -8.390625 33.246094 -8.3125 C 33.324219 -8.390625 33.402344 -8.46875 33.558594 -8.546875 C 33.714844 -8.621094 33.792969 -8.777344 33.792969 -9.011719 L 33.792969 -9.242188 C 33.945312 -9.167969 34.101562 -9.089844 34.179688 -9.011719 C 34.492188 -9.242188 34.722656 -9.398438 34.957031 -9.476562 C 34.878906 -9.476562 34.878906 -9.476562 34.878906 -9.554688 C 34.644531 -9.476562 34.492188 -9.398438 34.335938 -9.398438 C 34.414062 -9.632812 34.492188 -9.867188 34.566406 -10.097656 C 34.644531 -10.332031 34.722656 -10.566406 34.800781 -10.796875 L 35.265625 -9.867188 L 35.34375 -9.941406 C 35.34375 -9.789062 35.34375 -9.789062 35.34375 -9.941406 C 35.34375 -10.097656 35.421875 -10.332031 35.65625 -10.640625 C 35.890625 -10.953125 36.199219 -11.417969 36.664062 -11.964844 C 37.132812 -12.507812 37.832031 -13.128906 38.761719 -13.828125 C 38.683594 -13.90625 38.609375 -13.90625 38.53125 -13.90625 C 38.609375 -14.136719 38.761719 -14.292969 38.917969 -14.371094 C 39.074219 -14.449219 39.152344 -14.757812 39.152344 -15.304688 C 39.152344 -15.535156 39.152344 -15.691406 39.074219 -15.769531 C 39.308594 -15.847656 39.460938 -15.925781 39.539062 -16.003906 L 39.382812 -16.234375 L 39.230469 -16.46875 C 39.308594 -16.390625 39.382812 -16.390625 39.460938 -16.390625 C 39.539062 -16.390625 39.617188 -16.46875 39.617188 -16.546875 L 39.617188 -16.933594 C 39.617188 -17.167969 39.695312 -17.554688 39.929688 -18.101562 L 39.695312 -18.253906 C 39.851562 -18.332031 39.929688 -18.410156 40.003906 -18.488281 C 40.082031 -18.566406 40.160156 -18.566406 40.238281 -18.566406 C 40.316406 -18.566406 40.316406 -18.566406 40.316406 -18.488281 C 40.316406 -18.410156 40.316406 -18.410156 40.394531 -18.410156 C 40.472656 -18.410156 40.550781 -18.488281 40.628906 -18.566406 C 40.550781 -18.488281 40.550781 -18.488281 40.703125 -18.566406 C 40.859375 -18.644531 41.09375 -18.722656 41.328125 -18.875 C 41.558594 -19.03125 41.792969 -19.265625 42.027344 -19.496094 C 42.257812 -19.730469 42.335938 -20.042969 42.335938 -20.429688 C 42.414062 -20.507812 42.414062 -20.507812 42.414062 -20.429688 L 42.414062 -20.121094 C 42.492188 -20.195312 42.570312 -20.351562 42.648438 -20.585938 C 42.726562 -20.820312 42.800781 -21.050781 42.878906 -21.363281 C 42.957031 -21.671875 43.035156 -21.90625 43.113281 -22.140625 C 43.191406 -22.371094 43.191406 -22.527344 43.191406 -22.605469 C 43.191406 -22.683594 43.191406 -22.761719 43.113281 -22.839844 C 43.421875 -23.304688 43.65625 -23.847656 43.734375 -24.46875 C 43.8125 -25.089844 43.890625 -25.710938 43.890625 -26.332031 L 43.890625 -27.808594 C 43.96875 -28.429688 43.8125 -29.363281 43.5 -30.683594 C 43.191406 -32.003906 42.648438 -33.167969 41.949219 -34.179688 C 41.714844 -34.414062 41.402344 -34.800781 41.015625 -35.34375 C 40.628906 -35.890625 40.160156 -36.433594 39.617188 -36.976562 C 39.074219 -37.519531 38.453125 -37.984375 37.675781 -38.375 C 36.898438 -38.761719 36.042969 -38.917969 35.113281 -38.917969 L 34.800781 -38.917969 C 33.867188 -39.539062 32.859375 -39.929688 31.695312 -40.082031 C 30.527344 -40.238281 29.363281 -40.316406 28.199219 -40.316406 C 27.03125 -40.316406 25.867188 -40.394531 24.703125 -40.472656 C 23.539062 -40.550781 22.449219 -40.859375 21.441406 -41.402344 C 21.519531 -41.480469 21.519531 -41.558594 21.519531 -41.636719 C 21.519531 -41.714844 21.519531 -41.792969 21.59375 -41.871094 L 21.519531 -42.027344 L 21.75 -42.257812 L 21.519531 -42.800781 C 21.441406 -42.957031 21.285156 -43.191406 21.050781 -43.578125 L 21.128906 -43.65625 L 21.59375 -43.421875 C 21.050781 -43.890625 20.585938 -44.277344 20.121094 -44.589844 C 19.652344 -44.898438 19.1875 -45.210938 18.644531 -45.445312 L 18.644531 -45.289062 C 18.644531 -45.210938 18.644531 -45.210938 18.566406 -45.210938 C 18.410156 -45.210938 18.253906 -45.210938 18.101562 -45.289062 C 17.945312 -45.367188 17.789062 -45.367188 17.632812 -45.367188 C 17.246094 -45.367188 16.855469 -45.210938 16.46875 -44.976562 C 16.546875 -44.898438 16.546875 -44.820312 16.546875 -44.667969 C 16.46875 -44.667969 16.3125 -44.589844 16.078125 -44.433594 C 15.847656 -44.277344 15.691406 -44.121094 15.691406 -43.96875 C 15.613281 -43.734375 15.382812 -43.578125 14.914062 -43.421875 C 14.449219 -43.269531 14.214844 -42.957031 14.214844 -42.492188 C 14.292969 -42.570312 14.292969 -42.414062 14.214844 -42.101562 C 14.136719 -41.792969 14.058594 -41.480469 13.90625 -41.09375 C 13.75 -40.703125 13.515625 -40.316406 13.285156 -39.929688 C 13.050781 -39.539062 12.738281 -39.308594 12.429688 -39.230469 C 12.585938 -39.230469 12.117188 -39.152344 10.953125 -38.917969 C 9.789062 -38.683594 8.46875 -38.453125 6.992188 -38.140625 C 5.515625 -37.832031 4.195312 -37.519531 2.953125 -37.210938 C 1.710938 -36.898438 1.085938 -36.664062 1.085938 -36.511719 C 1.085938 -36.433594 1.242188 -36.199219 1.554688 -35.8125 C 1.863281 -35.421875 2.175781 -35.265625 2.5625 -35.265625 C 3.105469 -35.265625 3.574219 -35.34375 4.039062 -35.578125 C 4.503906 -35.8125 4.972656 -35.890625 5.515625 -35.890625 L 5.902344 -35.890625 C 6.601562 -35.890625 7.300781 -35.964844 8.078125 -36.121094 C 8.855469 -36.277344 9.554688 -36.433594 10.253906 -36.664062 L 9.632812 -36.664062 L 10.410156 -36.820312 C 10.71875 -36.898438 10.953125 -36.976562 11.03125 -37.054688 L 11.109375 -37.054688 C 11.1875 -37.054688 11.265625 -37.054688 11.339844 -36.976562 C 11.417969 -36.976562 11.496094 -37.054688 11.574219 -37.132812 C 11.496094 -36.820312 11.417969 -36.585938 11.417969 -36.511719 L 11.496094 -36.433594 C 11.496094 -36.511719 11.496094 -36.664062 11.574219 -36.820312 C 11.652344 -36.976562 11.730469 -37.054688 11.808594 -37.054688 C 11.886719 -37.054688 11.964844 -36.976562 12.039062 -36.898438 C 11.496094 -34.722656 10.71875 -32.394531 9.789062 -29.90625 C 8.855469 -27.421875 7.847656 -25.089844 6.835938 -22.914062 C 6.136719 -20.972656 5.359375 -19.03125 4.582031 -17.167969 C 3.804688 -15.304688 3.183594 -13.59375 2.796875 -12.117188 C 2.40625 -10.953125 2.019531 -9.867188 1.632812 -8.855469 C 1.242188 -7.847656 0.933594 -6.835938 0.621094 -5.75 C 0.15625 -4.195312 -0.234375 -2.875 -0.621094 -1.863281 C -1.011719 -0.855469 -1.632812 0.15625 -2.484375 1.164062 L -2.484375 1.398438 C -2.484375 1.320312 -2.5625 1.398438 -2.640625 1.554688 C -2.71875 1.710938 -2.796875 2.019531 -2.953125 2.40625 C -3.105469 2.796875 -3.183594 3.183594 -3.261719 3.652344 C -3.339844 4.117188 -3.417969 4.503906 -3.417969 4.894531 C -3.417969 4.972656 -3.417969 5.050781 -3.417969 5.050781 C -3.417969 5.050781 -3.417969 5.128906 -3.417969 5.203125 C -3.417969 5.28125 -3.496094 5.359375 -3.574219 5.4375 C -3.652344 5.515625 -3.730469 5.59375 -3.730469 5.671875 C -3.652344 5.902344 -3.496094 6.058594 -3.261719 6.136719 C -3.03125 6.214844 -2.640625 6.523438 -2.097656 6.992188 C -1.710938 7.300781 -1.320312 7.457031 -0.855469 7.535156 C -0.386719 7.613281 0.078125 7.613281 0.464844 7.613281 L 1.011719 7.613281 C 1.242188 7.613281 1.398438 7.613281 1.476562 7.691406 C 1.554688 7.613281 1.632812 7.535156 1.710938 7.378906 C 1.785156 7.222656 1.863281 7.148438 1.941406 7.070312 C 2.332031 6.757812 2.640625 6.523438 2.875 6.371094 C 3.105469 6.214844 3.261719 6.058594 3.417969 5.902344 C 3.574219 5.75 3.730469 5.59375 3.882812 5.4375 C 4.039062 5.28125 4.195312 5.050781 4.351562 4.816406 C 4.429688 4.816406 4.503906 4.816406 4.503906 4.816406 C 4.503906 4.816406 4.503906 4.816406 4.582031 4.816406 L 4.972656 4.816406 C 5.128906 4.816406 5.359375 4.972656 5.59375 5.203125 C 5.824219 4.972656 5.902344 4.816406 5.902344 4.660156 C 6.058594 4.273438 6.292969 4.117188 6.601562 4.117188 C 6.914062 4.117188 7.070312 4.039062 7.070312 3.804688 Z M 10.097656 -2.40625 L 10.332031 -2.640625 L 10.253906 -2.71875 C 10.332031 -2.796875 10.410156 -2.875 10.488281 -2.953125 L 10.488281 -2.71875 C 10.640625 -2.953125 10.71875 -3.183594 10.71875 -3.417969 C 10.71875 -3.652344 10.71875 -3.882812 10.71875 -4.195312 C 10.796875 -4.117188 10.796875 -4.039062 10.796875 -3.960938 C 10.875 -4.351562 10.953125 -4.660156 11.109375 -4.972656 C 11.265625 -5.28125 11.339844 -5.671875 11.339844 -6.058594 C 11.417969 -6.136719 11.496094 -6.292969 11.574219 -6.601562 C 11.652344 -6.914062 11.730469 -7.222656 11.808594 -7.613281 L 12.117188 -8.699219 C 12.195312 -9.089844 12.273438 -9.398438 12.351562 -9.632812 C 12.351562 -9.710938 12.273438 -9.710938 12.195312 -9.710938 C 12.273438 -9.789062 12.351562 -9.867188 12.429688 -9.941406 C 12.351562 -10.019531 12.273438 -10.019531 12.195312 -10.019531 C 12.429688 -10.253906 12.738281 -10.796875 13.128906 -11.652344 C 13.515625 -12.507812 13.828125 -13.4375 14.058594 -14.449219 L 14.136719 -14.835938 C 14.214844 -15.070312 14.292969 -15.382812 14.371094 -15.691406 C 14.449219 -16.003906 14.605469 -16.3125 14.757812 -16.625 C 14.914062 -16.933594 15.070312 -17.167969 15.226562 -17.324219 L 15.070312 -17.402344 L 15.535156 -18.800781 C 15.691406 -19.265625 15.925781 -19.730469 16.15625 -20.195312 L 16.15625 -20.351562 C 16.15625 -20.429688 16.15625 -20.507812 16.234375 -20.664062 C 16.3125 -20.820312 16.390625 -20.972656 16.46875 -21.207031 C 16.46875 -21.285156 16.46875 -21.285156 16.46875 -21.285156 C 16.46875 -21.285156 16.46875 -21.363281 16.46875 -21.441406 C 16.546875 -21.441406 16.625 -21.363281 16.703125 -21.285156 C 16.703125 -21.984375 16.855469 -22.449219 17.167969 -22.683594 C 17.476562 -22.914062 17.632812 -23.148438 17.632812 -23.382812 L 17.476562 -23.382812 C 18.023438 -24.546875 18.332031 -25.324219 18.488281 -25.710938 C 18.644531 -26.101562 18.800781 -26.488281 18.953125 -26.878906 C 19.109375 -27.265625 19.34375 -27.808594 19.652344 -28.585938 C 19.964844 -29.363281 20.507812 -30.683594 21.363281 -32.625 C 21.363281 -32.394531 21.441406 -32.472656 21.519531 -32.859375 C 21.59375 -33.246094 21.671875 -33.714844 21.75 -34.257812 C 21.828125 -34.800781 21.90625 -35.34375 22.0625 -35.890625 L 22.21875 -36.664062 C 22.21875 -36.742188 22.140625 -36.820312 22.0625 -36.898438 C 22.140625 -36.898438 22.140625 -36.898438 22.140625 -36.898438 C 22.140625 -36.898438 22.140625 -36.898438 22.21875 -36.898438 C 23.226562 -36.898438 24.46875 -36.742188 25.867188 -36.511719 C 27.265625 -36.277344 29.054688 -35.578125 31.304688 -34.492188 C 31.695312 -34.101562 32.160156 -33.792969 32.625 -33.558594 C 33.09375 -33.324219 33.558594 -33.015625 33.945312 -32.703125 C 34.335938 -32.394531 34.644531 -32.082031 34.957031 -31.695312 C 35.265625 -31.304688 35.421875 -30.761719 35.421875 -30.0625 C 35.421875 -28.585938 35.035156 -27.1875 34.257812 -25.867188 C 33.480469 -24.546875 32.703125 -23.226562 32.003906 -21.984375 C 31.617188 -21.363281 31.304688 -20.742188 31.074219 -20.195312 C 30.839844 -19.652344 30.605469 -19.109375 30.375 -18.644531 C 30.140625 -18.175781 29.984375 -17.789062 29.90625 -17.476562 C 29.675781 -16.855469 29.363281 -16.234375 28.976562 -15.691406 L 27.730469 -13.984375 C 27.578125 -13.75 27.265625 -13.515625 26.800781 -13.285156 C 26.332031 -13.050781 25.558594 -12.351562 24.390625 -11.1875 C 24.3125 -11.265625 24.3125 -11.265625 24.3125 -11.265625 C 24.3125 -11.265625 24.3125 -11.265625 24.238281 -11.339844 C 24.238281 -10.953125 24.003906 -10.488281 23.539062 -9.941406 C 23.070312 -9.398438 22.683594 -8.855469 22.449219 -8.3125 C 21.050781 -6.523438 19.808594 -5.050781 18.722656 -3.882812 C 17.632812 -2.71875 16.546875 -1.710938 15.457031 -0.933594 C 14.371094 -0.15625 13.207031 0.542969 11.964844 1.164062 C 10.71875 1.785156 9.167969 2.40625 7.378906 3.03125 C 7.378906 2.796875 7.535156 2.5625 7.769531 2.332031 C 7.691406 2.484375 7.691406 2.640625 7.691406 2.71875 C 7.921875 2.5625 8.078125 2.332031 8.078125 2.019531 C 8.078125 1.710938 8.234375 1.398438 8.46875 1.164062 C 8.390625 1.164062 8.3125 1.164062 8.234375 1.085938 C 8.234375 0.855469 8.3125 0.542969 8.546875 0.234375 C 8.777344 -0.078125 9.011719 -0.386719 9.242188 -0.777344 C 9.167969 -0.777344 9.089844 -0.777344 9.011719 -0.855469 C 9.011719 -0.933594 9.011719 -1.011719 9.089844 -1.011719 C 9.167969 -1.011719 9.167969 -1.011719 9.167969 -1.085938 L 9.167969 -1.164062 C 9.167969 -1.085938 9.167969 -1.011719 9.167969 -1.011719 C 9.167969 -1.011719 9.167969 -0.933594 9.167969 -0.855469 C 9.398438 -1.398438 9.476562 -1.710938 9.476562 -1.785156 C 9.398438 -1.785156 9.398438 -1.785156 9.398438 -1.785156 C 9.398438 -1.785156 9.398438 -1.785156 9.320312 -1.785156 C 9.242188 -1.785156 9.242188 -1.863281 9.242188 -1.941406 C 9.167969 -1.863281 9.011719 -1.785156 8.855469 -1.785156 C 8.699219 -1.785156 8.546875 -1.710938 8.46875 -1.632812 C 8.390625 -1.710938 8.3125 -1.785156 8.3125 -1.863281 C 8.3125 -2.019531 8.390625 -2.175781 8.46875 -2.253906 C 8.546875 -2.332031 8.621094 -2.40625 8.621094 -2.484375 C 8.621094 -2.5625 8.546875 -2.640625 8.46875 -2.71875 C 8.546875 -2.796875 8.699219 -2.796875 8.855469 -2.796875 C 8.933594 -2.71875 9.011719 -2.5625 9.089844 -2.40625 C 9.167969 -2.253906 9.167969 -2.019531 9.167969 -1.785156 Z M 35.578125 -16.390625 C 35.5 -16.46875 35.421875 -16.546875 35.34375 -16.703125 C 35.265625 -16.855469 35.191406 -16.933594 35.191406 -17.011719 C 35.191406 -17.089844 35.265625 -17.089844 35.34375 -17.089844 C 35.421875 -17.089844 35.5 -17.089844 35.5 -17.167969 C 35.421875 -17.167969 35.421875 -17.167969 35.421875 -17.246094 C 35.421875 -17.324219 35.5 -17.402344 35.65625 -17.402344 L 35.964844 -17.402344 C 36.355469 -17.402344 36.511719 -17.246094 36.511719 -17.011719 C 36.433594 -16.933594 36.277344 -16.855469 36.121094 -16.777344 C 35.964844 -16.703125 35.8125 -16.625 35.734375 -16.546875 Z M 29.285156 -8.699219 C 29.128906 -8.46875 28.976562 -8.3125 28.898438 -8.3125 C 28.820312 -8.3125 28.585938 -8.078125 28.199219 -7.691406 C 28.121094 -7.769531 28.042969 -7.847656 28.042969 -7.847656 C 28.042969 -7.847656 27.964844 -7.921875 27.886719 -8 C 28.277344 -8.234375 28.664062 -8.546875 29.054688 -8.933594 Z M 9.710938 -5.359375 C 9.789062 -5.050781 9.867188 -4.816406 9.867188 -4.738281 C 9.867188 -4.503906 9.710938 -4.273438 9.398438 -4.039062 C 9.242188 -4.117188 9.167969 -4.195312 9.167969 -4.351562 C 9.167969 -4.429688 9.242188 -4.503906 9.320312 -4.582031 C 9.398438 -4.503906 9.398438 -4.429688 9.398438 -4.351562 C 9.476562 -4.429688 9.476562 -4.503906 9.476562 -4.582031 L 9.476562 -4.894531 C 9.476562 -5.050781 9.554688 -5.128906 9.710938 -5.203125 Z M 11.109375 -37.132812 C 10.875 -37.132812 10.640625 -37.132812 10.488281 -37.132812 C 10.332031 -37.132812 10.097656 -37.132812 9.867188 -37.132812 C 9.867188 -37.210938 10.019531 -37.285156 10.410156 -37.363281 C 10.796875 -37.441406 11.109375 -37.519531 11.339844 -37.597656 C 11.265625 -37.363281 11.1875 -37.132812 11.109375 -36.976562 C 11.03125 -36.820312 10.953125 -36.664062 10.875 -36.585938 C 10.875 -36.664062 10.875 -36.664062 10.875 -36.664062 C 10.875 -36.664062 10.875 -36.664062 10.875 -36.742188 Z M 38.140625 -17.632812 C 38.0625 -17.476562 37.984375 -17.246094 37.984375 -17.011719 C 37.984375 -16.777344 37.910156 -16.625 37.753906 -16.625 C 37.675781 -16.625 37.597656 -16.625 37.519531 -16.703125 C 37.597656 -16.855469 37.675781 -17.011719 37.753906 -17.167969 C 37.832031 -17.324219 37.910156 -17.476562 37.984375 -17.632812 C 38.0625 -17.632812 38.140625 -17.632812 38.21875 -17.554688 Z M 10.796875 -36.820312 C 10.796875 -36.585938 10.640625 -36.433594 10.332031 -36.355469 C 10.019531 -36.277344 9.789062 -36.277344 9.554688 -36.277344 L 9.398438 -36.433594 C 9.632812 -36.511719 9.867188 -36.585938 10.097656 -36.585938 C 10.332031 -36.585938 10.566406 -36.585938 10.796875 -36.664062 Z M 38.609375 -14.757812 L 38.140625 -13.59375 C 38.21875 -13.671875 38.296875 -13.828125 38.375 -14.058594 C 38.453125 -14.292969 38.53125 -14.527344 38.53125 -14.757812 Z M 12.273438 -39.695312 C 12.273438 -39.929688 12.351562 -40.238281 12.585938 -40.628906 L 12.507812 -40.703125 L 12.039062 -39.539062 C 12.117188 -39.617188 12.195312 -39.617188 12.273438 -39.617188 Z M -4.738281 5.359375 L -4.816406 5.28125 C -4.894531 5.359375 -4.972656 5.4375 -5.050781 5.515625 C -5.128906 5.59375 -5.128906 5.671875 -5.128906 5.75 C -5.128906 5.824219 -5.128906 5.824219 -5.128906 5.824219 C -5.128906 5.824219 -5.128906 5.824219 -5.128906 5.902344 C -5.050781 5.824219 -4.972656 5.75 -4.972656 5.75 C -4.972656 5.75 -4.972656 5.671875 -4.972656 5.59375 Z M 17.476562 1.242188 L 17.324219 1.242188 C 17.246094 1.242188 17.089844 1.320312 16.855469 1.554688 C 16.933594 1.476562 17.011719 1.398438 17.089844 1.320312 C 17.167969 1.242188 17.246094 1.164062 17.324219 1.085938 Z M 20.121094 -42.335938 C 20.042969 -42.257812 20.042969 -42.179688 20.042969 -42.101562 C 20.042969 -42.027344 20.042969 -41.949219 19.964844 -41.871094 L 20.429688 -41.871094 C 20.351562 -41.949219 20.351562 -42.027344 20.351562 -42.101562 C 20.351562 -42.179688 20.273438 -42.179688 20.195312 -42.179688 Z M 8.15625 3.882812 C 8.234375 3.804688 8.3125 3.804688 8.390625 3.804688 C 8.46875 3.804688 8.546875 3.804688 8.621094 3.730469 C 8.546875 3.730469 8.46875 3.730469 8.46875 3.730469 C 8.46875 3.730469 8.390625 3.730469 8.3125 3.730469 C 8.3125 3.652344 8.3125 3.574219 8.390625 3.496094 C 8.390625 3.417969 8.390625 3.417969 8.3125 3.417969 C 8.234375 3.496094 8.078125 3.574219 7.921875 3.574219 C 7.921875 3.652344 8 3.652344 8.234375 3.652344 C 8.15625 3.730469 8.15625 3.804688 8.15625 3.804688 C 8.15625 3.804688 8.15625 3.882812 8.078125 3.960938 Z M 9.320312 -34.335938 C 9.320312 -34.257812 9.320312 -34.257812 9.398438 -34.257812 C 9.476562 -34.414062 9.554688 -34.644531 9.632812 -34.957031 C 9.476562 -34.878906 9.320312 -34.644531 9.242188 -34.335938 Z M 11.496094 2.5625 L 11.496094 2.484375 C 11.339844 2.5625 11.1875 2.640625 10.953125 2.71875 C 10.71875 2.796875 10.640625 2.875 10.640625 2.953125 C 10.796875 2.875 10.953125 2.796875 11.109375 2.71875 C 11.265625 2.640625 11.417969 2.5625 11.574219 2.484375 Z M 11.496094 2.5625 "/></g></g></g><g fill="#00bf63" fill-opacity="1"><g transform="translate(228.603573, 228.152905)"><g><path d="M 19.03125 -36.976562 C 19.03125 -36.898438 18.953125 -36.742188 18.875 -36.511719 C 18.023438 -34.957031 17.246094 -33.324219 16.546875 -31.695312 C 15.847656 -30.0625 14.992188 -28.121094 13.984375 -25.945312 C 13.90625 -25.710938 13.59375 -25.167969 13.128906 -24.3125 C 12.660156 -23.460938 12.117188 -22.371094 11.496094 -21.128906 C 10.875 -19.886719 10.253906 -18.488281 9.632812 -17.011719 C 9.011719 -15.535156 8.46875 -14.058594 8 -12.585938 C 7.535156 -11.574219 7.148438 -10.488281 6.835938 -9.398438 C 6.523438 -8.3125 6.136719 -7.222656 5.75 -6.214844 C 5.515625 -5.671875 5.28125 -5.128906 5.050781 -4.582031 L 4.273438 -2.953125 C 4.039062 -2.40625 3.804688 -1.863281 3.652344 -1.398438 C 3.496094 -0.933594 3.417969 -0.542969 3.417969 -0.234375 C 3.417969 0.3125 3.652344 0.777344 4.117188 1.164062 C 4.582031 1.554688 5.128906 1.863281 5.75 2.097656 C 6.371094 2.332031 6.992188 2.484375 7.613281 2.640625 C 8.234375 2.796875 8.621094 2.875 8.855469 2.953125 C 8.933594 2.953125 9.011719 2.953125 9.167969 2.875 C 9.320312 2.796875 9.398438 2.796875 9.476562 2.796875 L 10.019531 2.796875 C 10.253906 2.796875 10.410156 2.875 10.566406 3.105469 C 10.71875 3.03125 10.875 2.953125 11.109375 2.875 C 11.339844 2.796875 11.417969 2.640625 11.417969 2.40625 C 11.496094 2.484375 11.574219 2.484375 11.652344 2.484375 C 11.730469 2.332031 11.730469 2.175781 11.730469 1.941406 C 11.730469 1.710938 11.808594 1.632812 11.964844 1.632812 C 12.117188 1.632812 12.195312 1.710938 12.195312 1.863281 C 12.195312 2.019531 12.195312 2.097656 12.273438 2.097656 C 12.351562 2.097656 12.429688 2.019531 12.507812 1.863281 C 12.585938 1.710938 12.660156 1.632812 12.738281 1.554688 L 12.816406 1.785156 L 12.894531 2.019531 C 12.894531 1.941406 12.894531 1.941406 12.972656 1.941406 C 13.050781 1.941406 13.128906 1.941406 13.207031 1.863281 C 13.207031 2.019531 13.128906 2.175781 13.050781 2.332031 C 12.972656 2.484375 12.894531 2.640625 12.894531 2.875 C 12.894531 2.953125 12.894531 3.03125 12.894531 3.03125 C 12.894531 3.03125 12.894531 3.105469 12.894531 3.183594 L 13.050781 3.183594 C 13.128906 3.183594 13.207031 3.105469 13.285156 2.953125 C 13.359375 2.796875 13.4375 2.5625 13.59375 2.175781 C 13.75 1.785156 13.90625 1.242188 14.136719 0.464844 C 14.214844 0.234375 14.292969 0.078125 14.292969 0 L 14.449219 -0.621094 C 14.527344 -0.933594 14.683594 -1.398438 14.914062 -2.019531 C 15.148438 -2.640625 15.535156 -3.574219 16.078125 -4.738281 C 16.15625 -5.050781 16.390625 -5.4375 16.703125 -5.902344 C 17.011719 -6.371094 17.324219 -6.835938 17.632812 -7.378906 C 17.945312 -7.921875 18.253906 -8.46875 18.488281 -9.011719 C 18.722656 -9.554688 18.875 -10.019531 18.875 -10.488281 L 18.875 -10.640625 C 19.03125 -10.71875 19.1875 -10.875 19.265625 -11.109375 C 19.34375 -11.339844 19.421875 -11.496094 19.421875 -11.574219 C 19.421875 -11.652344 19.421875 -11.730469 19.34375 -11.808594 C 19.730469 -12.351562 19.964844 -12.816406 20.042969 -13.285156 C 20.121094 -13.75 20.273438 -14.214844 20.507812 -14.605469 C 20.742188 -14.835938 20.894531 -15.148438 20.972656 -15.535156 C 21.363281 -16.777344 21.984375 -18.175781 22.839844 -19.730469 C 23.691406 -21.285156 24.390625 -22.605469 24.9375 -23.769531 C 25.011719 -24.082031 25.246094 -24.546875 25.558594 -25.167969 C 25.867188 -25.789062 26.023438 -26.179688 26.023438 -26.410156 L 26.023438 -26.566406 C 26.644531 -27.1875 27.109375 -27.964844 27.421875 -28.820312 C 27.730469 -29.675781 28.121094 -30.527344 28.585938 -31.382812 C 28.664062 -31.539062 28.742188 -31.773438 28.898438 -32.003906 C 29.054688 -32.238281 29.207031 -32.546875 29.363281 -32.859375 C 29.519531 -33.167969 29.675781 -33.480469 29.828125 -33.714844 C 29.984375 -33.945312 30.0625 -34.101562 30.140625 -34.179688 L 30.375 -34.644531 C 30.527344 -34.957031 30.683594 -35.265625 30.917969 -35.65625 C 31.148438 -36.042969 31.304688 -36.355469 31.460938 -36.664062 C 31.617188 -36.976562 31.695312 -37.132812 31.773438 -37.132812 C 31.539062 -37.132812 31.382812 -37.210938 31.382812 -37.363281 C 31.382812 -37.519531 31.539062 -37.597656 31.773438 -37.675781 C 31.617188 -37.753906 31.539062 -37.832031 31.539062 -37.910156 C 31.539062 -38.140625 31.617188 -38.296875 31.773438 -38.296875 C 31.925781 -38.296875 32.082031 -38.375 32.160156 -38.453125 C 32.238281 -38.453125 32.238281 -38.453125 32.238281 -38.453125 C 32.238281 -38.453125 32.238281 -38.453125 32.316406 -38.453125 C 32.78125 -38.53125 33.324219 -38.683594 33.945312 -38.839844 C 34.566406 -38.996094 35.035156 -39.074219 35.421875 -39.074219 L 35.578125 -39.074219 C 35.65625 -39.074219 35.734375 -39.074219 35.8125 -39.074219 C 35.890625 -39.074219 36.042969 -39.074219 36.199219 -39.074219 C 36.277344 -39.074219 36.433594 -38.996094 36.664062 -38.917969 C 36.976562 -38.996094 37.363281 -39.074219 37.832031 -39.074219 C 37.753906 -39.074219 37.832031 -39.074219 38.140625 -39.152344 C 38.453125 -39.230469 38.761719 -39.308594 39.074219 -39.382812 C 39.382812 -39.460938 39.695312 -39.617188 40.003906 -39.773438 C 40.316406 -39.929688 40.472656 -40.082031 40.472656 -40.316406 C 40.316406 -40.472656 40.003906 -40.550781 39.539062 -40.628906 C 39.074219 -40.703125 38.53125 -40.703125 37.984375 -40.703125 L 36.355469 -40.78125 C 35.8125 -40.78125 35.421875 -40.78125 35.191406 -40.859375 C 34.957031 -40.859375 34.257812 -41.015625 33.167969 -41.25 C 32.082031 -41.480469 30.683594 -41.636719 29.054688 -41.636719 C 28.664062 -41.871094 28.355469 -42.101562 28.121094 -42.335938 C 27.578125 -42.726562 27.265625 -43.113281 27.265625 -43.5 C 27.1875 -43.578125 27.109375 -43.578125 27.109375 -43.5 C 27.109375 -43.421875 27.109375 -43.347656 27.03125 -43.269531 L 26.878906 -43.421875 C 26.800781 -43.5 26.410156 -43.734375 25.636719 -44.199219 C 24.859375 -44.667969 24.082031 -44.898438 23.226562 -44.898438 C 22.992188 -44.898438 22.761719 -44.820312 22.527344 -44.589844 L 21.984375 -44.046875 C 21.984375 -43.65625 21.90625 -43.347656 21.671875 -43.113281 C 21.441406 -42.878906 21.207031 -42.648438 20.972656 -42.414062 C 20.972656 -42.335938 20.351562 -42.257812 19.109375 -42.179688 L 14.914062 -41.792969 C 13.359375 -41.636719 11.886719 -41.558594 10.488281 -41.480469 C 9.089844 -41.402344 8.234375 -41.328125 7.921875 -41.25 L 7.457031 -41.25 C 6.992188 -41.171875 6.523438 -41.09375 6.136719 -41.015625 C 5.359375 -40.859375 4.660156 -40.78125 3.960938 -40.78125 L 3.574219 -40.78125 C 3.339844 -40.703125 3.105469 -40.628906 2.875 -40.550781 C 2.71875 -40.472656 2.5625 -40.394531 2.40625 -40.394531 C 2.253906 -40.394531 2.175781 -40.316406 2.097656 -40.238281 C 1.785156 -39.929688 1.632812 -39.695312 1.632812 -39.539062 C 1.632812 -39.382812 1.554688 -39.152344 1.476562 -38.917969 L 2.40625 -38.140625 C 2.71875 -37.910156 3.183594 -37.753906 3.730469 -37.753906 C 3.960938 -37.753906 4.195312 -37.753906 4.429688 -37.832031 C 4.660156 -37.910156 4.894531 -37.910156 5.128906 -37.910156 C 5.359375 -37.910156 5.59375 -37.910156 5.824219 -37.910156 C 6.058594 -37.910156 6.292969 -37.910156 6.523438 -37.910156 C 6.757812 -37.910156 7.070312 -37.910156 7.457031 -37.984375 C 7.847656 -38.0625 8.234375 -38.140625 8.699219 -38.21875 C 9.167969 -38.296875 9.554688 -38.375 9.941406 -38.453125 C 10.332031 -38.53125 10.566406 -38.53125 10.640625 -38.53125 C 10.71875 -38.53125 10.796875 -38.53125 10.875 -38.53125 C 10.953125 -38.53125 11.03125 -38.53125 11.109375 -38.53125 C 11.1875 -38.53125 11.339844 -38.53125 11.496094 -38.53125 C 11.652344 -38.53125 11.808594 -38.53125 11.964844 -38.53125 L 12.195312 -38.53125 C 12.738281 -38.53125 13.285156 -38.609375 13.828125 -38.683594 C 14.371094 -38.761719 14.992188 -38.839844 15.691406 -38.839844 L 16.15625 -38.839844 C 16.15625 -38.917969 16.15625 -38.917969 16.234375 -38.917969 L 16.390625 -38.839844 C 16.625 -38.996094 16.855469 -39.074219 17.167969 -39.074219 L 17.710938 -39.074219 C 17.945312 -39.074219 18.253906 -39.074219 18.566406 -39.152344 C 18.875 -39.230469 19.1875 -39.308594 19.496094 -39.382812 C 19.496094 -39.152344 19.34375 -38.683594 18.953125 -38.0625 C 18.566406 -37.441406 18.253906 -36.976562 18.023438 -36.742188 C 18.101562 -36.742188 18.175781 -36.742188 18.253906 -36.664062 Z M 19.03125 -36.976562 "/></g></g></g><g fill="#00bf63" fill-opacity="1"><g transform="translate(251.208112, 228.152905)"><g><path d="M 1.632812 -0.933594 C 2.332031 1.011719 3.183594 2.332031 4.195312 3.03125 C 5.203125 3.730469 6.449219 4.117188 8 4.117188 C 8.390625 4.117188 8.777344 4.039062 9.242188 3.960938 C 9.710938 3.882812 10.019531 3.804688 10.253906 3.804688 L 10.566406 3.804688 C 11.109375 3.730469 11.417969 3.496094 11.496094 3.105469 C 12.039062 2.875 12.507812 2.640625 12.972656 2.40625 C 13.359375 2.175781 13.671875 1.941406 13.984375 1.710938 C 14.292969 1.476562 14.449219 1.320312 14.449219 1.164062 C 14.449219 1.085938 14.449219 1.011719 14.449219 1.011719 C 14.449219 1.011719 14.449219 0.933594 14.449219 0.855469 C 14.527344 0.933594 14.605469 1.011719 14.605469 1.085938 C 14.605469 1.164062 14.605469 1.242188 14.683594 1.320312 C 14.757812 1.242188 14.757812 1.164062 14.757812 1.085938 C 14.835938 1.011719 14.992188 0.933594 15.226562 0.855469 C 15.457031 0.777344 15.613281 0.699219 15.613281 0.621094 C 15.535156 0.621094 15.535156 0.621094 15.535156 0.542969 L 15.535156 0.386719 C 15.613281 0.464844 15.691406 0.542969 15.769531 0.542969 C 15.925781 0.3125 16.15625 0.234375 16.546875 0.3125 C 16.933594 0.386719 17.246094 0.234375 17.476562 -0.15625 C 17.402344 -0.15625 17.324219 -0.15625 17.324219 -0.15625 C 17.324219 -0.15625 17.246094 -0.15625 17.167969 -0.15625 C 17.246094 -0.234375 17.324219 -0.3125 17.402344 -0.386719 C 17.476562 -0.464844 17.554688 -0.464844 17.632812 -0.464844 L 17.710938 -0.464844 C 17.789062 -0.464844 17.867188 -0.464844 17.945312 -0.542969 C 18.023438 -0.621094 18.101562 -0.621094 18.175781 -0.621094 C 18.175781 -0.542969 18.175781 -0.542969 18.253906 -0.542969 C 18.332031 -0.464844 18.410156 -0.464844 18.488281 -0.464844 L 19.808594 -1.785156 L 19.808594 -1.863281 L 19.652344 -2.019531 C 20.195312 -2.019531 20.820312 -2.253906 21.519531 -2.71875 C 22.21875 -3.183594 22.605469 -3.496094 22.761719 -3.652344 C 22.683594 -3.652344 22.683594 -3.652344 22.683594 -3.652344 C 22.683594 -3.652344 22.683594 -3.652344 22.605469 -3.652344 C 22.683594 -3.730469 22.761719 -3.804688 22.839844 -3.882812 C 22.839844 -3.804688 22.839844 -3.730469 22.839844 -3.730469 C 22.839844 -3.730469 22.839844 -3.652344 22.839844 -3.574219 C 22.914062 -3.496094 22.914062 -3.496094 22.914062 -3.574219 C 22.914062 -3.652344 22.914062 -3.730469 22.914062 -3.804688 C 22.839844 -3.730469 22.914062 -3.652344 23.148438 -3.652344 C 23.382812 -3.652344 23.539062 -3.652344 23.613281 -3.652344 C 23.691406 -3.652344 23.847656 -3.804688 24.082031 -4.039062 C 24.160156 -4.117188 24.625 -4.582031 25.480469 -5.4375 C 26.332031 -6.292969 27.34375 -7.378906 28.507812 -8.777344 C 28.507812 -8.699219 28.507812 -8.621094 28.507812 -8.621094 C 28.507812 -8.621094 28.507812 -8.546875 28.507812 -8.46875 C 28.507812 -8.234375 28.429688 -8.078125 28.277344 -7.921875 C 28.121094 -7.769531 28.042969 -7.613281 28.042969 -7.535156 C 28.121094 -7.535156 28.277344 -7.691406 28.507812 -8 C 28.742188 -8.3125 28.976562 -8.699219 29.207031 -9.167969 C 29.441406 -9.632812 29.675781 -10.019531 29.90625 -10.410156 C 30.140625 -10.796875 30.296875 -11.109375 30.375 -11.265625 C 30.449219 -11.265625 30.605469 -11.265625 30.761719 -11.1875 C 30.683594 -11.109375 30.605469 -11.03125 30.605469 -10.953125 C 30.605469 -10.875 30.527344 -10.796875 30.449219 -10.71875 C 30.683594 -10.875 30.917969 -11.1875 31.226562 -11.574219 C 31.148438 -11.417969 31.382812 -11.808594 32.003906 -12.738281 C 32.625 -13.671875 33.324219 -14.835938 34.101562 -16.234375 C 34.878906 -17.632812 35.65625 -19.109375 36.355469 -20.742188 C 37.054688 -22.371094 37.519531 -23.847656 37.753906 -25.167969 C 37.832031 -25.789062 38.0625 -26.488281 38.375 -27.34375 C 38.683594 -28.199219 38.839844 -28.898438 38.839844 -29.519531 L 38.839844 -31.773438 C 38.839844 -32.082031 38.839844 -32.394531 38.761719 -32.625 C 38.53125 -33.09375 38.375 -33.480469 38.296875 -33.714844 C 38.21875 -33.945312 38.0625 -34.257812 37.910156 -34.644531 C 37.753906 -35.035156 37.597656 -35.5 37.363281 -36.042969 C 37.132812 -36.585938 36.742188 -37.363281 36.199219 -38.453125 C 35.734375 -39.539062 35.191406 -40.394531 34.566406 -41.015625 C 33.945312 -41.636719 33.246094 -42.101562 32.472656 -42.414062 C 31.695312 -42.726562 30.917969 -42.957031 30.140625 -43.035156 C 29.363281 -43.113281 28.664062 -43.191406 27.964844 -43.269531 C 27.964844 -43.191406 27.964844 -43.191406 28.042969 -43.191406 C 27.964844 -43.113281 27.886719 -43.113281 27.808594 -43.113281 C 27.886719 -43.113281 27.964844 -43.113281 28.042969 -43.035156 C 27.65625 -42.957031 27.265625 -42.878906 26.878906 -42.800781 C 26.488281 -42.726562 26.101562 -42.648438 25.710938 -42.570312 C 25.558594 -42.570312 25.480469 -42.570312 25.480469 -42.648438 C 25.246094 -43.191406 24.859375 -43.5 24.238281 -43.65625 C 23.613281 -43.8125 23.148438 -44.199219 22.761719 -44.820312 C 22.683594 -44.746094 22.683594 -44.667969 22.683594 -44.589844 C 22.683594 -44.511719 22.683594 -44.511719 22.605469 -44.511719 C 22.21875 -44.589844 21.828125 -44.667969 21.519531 -44.820312 C 21.207031 -44.976562 20.894531 -45.054688 20.585938 -45.054688 C 20.507812 -45.054688 20.273438 -44.898438 19.964844 -44.589844 C 19.652344 -44.277344 19.265625 -43.890625 18.800781 -43.421875 C 18.332031 -42.957031 17.867188 -42.414062 17.402344 -41.792969 C 16.933594 -41.171875 16.46875 -40.628906 16.078125 -40.160156 C 13.984375 -37.441406 12.117188 -34.878906 10.410156 -32.472656 C 8.699219 -30.0625 7.148438 -27.34375 5.75 -24.390625 C 5.359375 -23.539062 4.972656 -22.527344 4.582031 -21.363281 C 4.195312 -20.195312 3.804688 -18.953125 3.496094 -17.632812 C 3.183594 -16.3125 2.875 -14.992188 2.5625 -13.59375 C 2.253906 -12.195312 2.019531 -10.875 1.785156 -9.632812 C 1.398438 -8.390625 1.164062 -7.148438 1.164062 -5.824219 C 1.164062 -4.503906 1.011719 -3.183594 0.777344 -1.863281 L 0.777344 -0.699219 C 0.777344 -0.234375 0.933594 0 1.164062 0 Z M 26.101562 -40.003906 C 26.023438 -40.238281 25.945312 -40.472656 25.789062 -40.703125 C 25.636719 -40.9375 25.558594 -41.171875 25.558594 -41.402344 C 25.558594 -41.480469 25.710938 -41.558594 26.023438 -41.558594 C 26.332031 -41.558594 26.566406 -41.558594 26.800781 -41.636719 C 27.109375 -41.636719 27.578125 -41.558594 28.121094 -41.402344 C 28.664062 -41.25 29.207031 -41.015625 29.75 -40.703125 C 30.296875 -40.394531 30.761719 -39.929688 31.148438 -39.308594 C 31.539062 -38.683594 31.695312 -37.832031 31.695312 -36.820312 C 31.695312 -35.035156 31.304688 -33.246094 30.527344 -31.460938 C 29.75 -29.675781 28.898438 -27.578125 27.964844 -25.246094 C 27.964844 -25.324219 27.886719 -25.167969 27.808594 -24.78125 C 27.730469 -24.390625 27.578125 -23.925781 27.34375 -23.382812 C 27.109375 -22.839844 26.800781 -22.292969 26.488281 -21.75 C 26.179688 -21.207031 25.867188 -20.742188 25.558594 -20.429688 C 24.78125 -18.875 23.925781 -17.324219 23.070312 -15.769531 C 22.21875 -14.214844 21.441406 -12.816406 20.742188 -11.652344 C 20.507812 -11.339844 20.195312 -10.796875 19.808594 -10.019531 C 19.421875 -9.242188 18.953125 -8.46875 18.488281 -7.613281 C 18.023438 -6.757812 17.476562 -5.902344 16.933594 -5.050781 C 16.390625 -4.195312 15.847656 -3.496094 15.304688 -2.953125 C 14.914062 -2.332031 14.527344 -1.785156 14.214844 -1.320312 C 13.90625 -0.855469 13.515625 -0.464844 13.128906 -0.078125 C 12.738281 0.3125 12.351562 0.699219 11.886719 1.011719 C 11.417969 1.320312 10.875 1.710938 10.253906 2.097656 C 10.175781 2.019531 10.097656 1.941406 10.097656 1.785156 C 10.097656 1.632812 10.019531 1.554688 9.941406 1.476562 C 10.019531 1.398438 10.097656 1.320312 10.175781 1.164062 C 10.253906 1.011719 10.253906 0.933594 10.253906 0.855469 L 10.253906 0.699219 C 10.253906 0.464844 10.253906 0.3125 10.332031 0.15625 C 10.410156 0 10.488281 -0.15625 10.566406 -0.386719 C 10.71875 -1.398438 10.875 -2.175781 11.03125 -2.71875 C 11.1875 -3.261719 11.265625 -3.730469 11.339844 -4.117188 C 11.417969 -4.503906 11.574219 -4.894531 11.730469 -5.359375 C 11.886719 -5.824219 12.117188 -6.449219 12.429688 -7.300781 C 12.660156 -8.3125 13.128906 -9.320312 13.75 -10.410156 C 14.371094 -11.496094 14.757812 -12.585938 14.992188 -13.59375 C 15.535156 -14.757812 16.003906 -16.078125 16.46875 -17.632812 C 16.933594 -19.1875 17.554688 -20.585938 18.332031 -21.90625 C 18.410156 -22.0625 18.722656 -22.605469 19.265625 -23.539062 C 19.808594 -24.46875 20.121094 -25.636719 20.273438 -27.03125 C 20.195312 -26.957031 20.195312 -26.957031 20.351562 -27.109375 C 20.507812 -27.265625 20.664062 -27.421875 20.820312 -27.65625 C 20.972656 -27.886719 21.128906 -28.199219 21.285156 -28.507812 C 21.441406 -28.820312 21.519531 -29.128906 21.519531 -29.441406 C 21.519531 -29.519531 21.441406 -29.597656 21.363281 -29.597656 C 21.285156 -29.597656 21.207031 -29.675781 21.207031 -29.75 C 21.207031 -30.140625 21.519531 -30.605469 22.0625 -31.148438 C 22.605469 -31.695312 22.992188 -32.316406 23.226562 -33.015625 C 23.460938 -33.167969 23.769531 -33.402344 24.160156 -33.714844 C 24.546875 -34.023438 24.9375 -34.335938 25.324219 -34.722656 C 25.710938 -35.113281 26.023438 -35.5 26.257812 -35.964844 C 26.488281 -36.433594 26.644531 -36.898438 26.644531 -37.285156 C 26.722656 -37.054688 26.722656 -37.054688 26.722656 -37.285156 C 26.722656 -37.519531 26.722656 -37.832031 26.644531 -38.21875 C 26.566406 -38.609375 26.488281 -38.917969 26.332031 -39.230469 C 26.179688 -39.539062 26.023438 -39.695312 25.867188 -39.695312 Z M 26.101562 -40.003906 "/></g></g></g><g fill="#00bf63" fill-opacity="1"><g transform="translate(285.076071, 228.152905)"><g><path d="M 32.859375 -24.703125 C 31.695312 -24.859375 30.917969 -24.9375 30.527344 -25.011719 C 30.140625 -25.089844 29.828125 -25.167969 29.597656 -25.324219 C 29.363281 -25.480469 28.976562 -25.636719 28.507812 -25.789062 C 28.042969 -25.945312 27.1875 -26.179688 25.867188 -26.488281 C 23.769531 -27.03125 22.292969 -27.808594 21.519531 -28.820312 C 20.742188 -29.828125 20.351562 -31.148438 20.351562 -32.78125 C 20.351562 -33.867188 20.664062 -34.800781 21.207031 -35.65625 C 21.75 -36.511719 22.371094 -37.210938 23.070312 -37.753906 C 23.769531 -38.296875 24.390625 -38.683594 24.9375 -38.917969 L 25.710938 -39.308594 C 26.257812 -39.539062 26.800781 -39.773438 27.421875 -40.082031 C 28.042969 -40.394531 28.664062 -40.703125 29.285156 -40.9375 C 29.90625 -41.171875 30.527344 -41.402344 31.074219 -41.636719 C 31.617188 -41.871094 32.082031 -41.949219 32.472656 -41.949219 C 32.703125 -41.949219 32.859375 -41.949219 33.015625 -41.949219 C 33.167969 -41.949219 33.324219 -41.949219 33.558594 -41.949219 C 33.792969 -41.949219 34.101562 -41.949219 34.492188 -41.949219 C 34.878906 -41.949219 35.035156 -42.101562 35.035156 -42.335938 C 35.035156 -42.414062 34.878906 -42.570312 34.644531 -42.726562 C 34.414062 -42.878906 34.257812 -43.035156 34.179688 -43.191406 C 34.023438 -43.035156 33.714844 -42.878906 33.246094 -42.800781 C 32.78125 -42.726562 32.316406 -42.648438 31.773438 -42.648438 C 31.226562 -42.648438 30.761719 -42.648438 30.296875 -42.648438 C 29.828125 -42.648438 29.519531 -42.648438 29.441406 -42.648438 C 28.355469 -42.570312 27.1875 -42.414062 25.867188 -42.179688 C 24.546875 -41.949219 23.460938 -41.558594 22.605469 -41.09375 C 20.894531 -40.160156 19.496094 -38.996094 18.410156 -37.597656 C 17.324219 -36.199219 16.625 -34.957031 16.3125 -33.945312 C 16.390625 -33.636719 16.390625 -33.324219 16.390625 -33.015625 C 16.390625 -32.703125 16.390625 -32.394531 16.46875 -32.082031 C 16.46875 -31.925781 16.46875 -31.773438 16.46875 -31.617188 C 16.46875 -31.460938 16.46875 -31.304688 16.46875 -31.148438 C 16.46875 -30.21875 16.777344 -29.363281 17.402344 -28.664062 C 18.023438 -27.964844 18.644531 -27.34375 19.34375 -26.800781 C 19.421875 -26.800781 19.421875 -26.722656 19.34375 -26.644531 C 19.265625 -26.566406 19.34375 -26.488281 19.574219 -26.488281 C 19.652344 -26.410156 19.808594 -26.257812 20.121094 -26.023438 C 20.273438 -25.945312 20.429688 -25.867188 20.507812 -25.789062 L 20.273438 -25.789062 C 20.507812 -25.710938 20.742188 -25.636719 21.050781 -25.558594 C 21.050781 -25.480469 20.972656 -25.480469 20.820312 -25.480469 C 20.894531 -25.246094 21.050781 -25.089844 21.285156 -25.089844 C 21.519531 -25.089844 21.59375 -24.9375 21.59375 -24.703125 L 21.75 -24.703125 L 21.828125 -24.78125 C 21.984375 -24.390625 22.371094 -24.160156 22.992188 -24.003906 C 23.613281 -23.847656 23.925781 -23.691406 23.925781 -23.613281 C 23.925781 -23.539062 24.003906 -23.460938 24.238281 -23.460938 C 24.46875 -23.460938 24.703125 -23.304688 25.011719 -23.070312 C 25.324219 -22.839844 25.558594 -22.527344 25.789062 -22.140625 C 26.023438 -21.75 26.101562 -21.128906 26.101562 -20.273438 C 26.101562 -19.886719 25.945312 -19.265625 25.636719 -18.410156 C 25.324219 -17.554688 24.859375 -16.546875 24.160156 -15.382812 C 23.460938 -14.214844 22.527344 -12.972656 21.363281 -11.574219 C 20.195312 -10.175781 18.800781 -8.699219 17.089844 -7.222656 C 15.769531 -6.214844 14.449219 -5.359375 13.128906 -4.660156 C 11.808594 -3.960938 10.410156 -3.105469 9.011719 -2.097656 C 8.777344 -2.019531 8.621094 -1.941406 8.546875 -1.941406 C 7.070312 -1.941406 5.824219 -2.484375 4.816406 -3.496094 C 3.804688 -4.503906 3.261719 -5.671875 3.261719 -6.992188 C 3.261719 -7.378906 3.261719 -7.769531 3.261719 -8.234375 C 3.261719 -8.699219 3.261719 -9.089844 3.261719 -9.476562 L 3.261719 -10.253906 C 3.261719 -10.488281 3.261719 -10.640625 3.261719 -10.796875 C 3.261719 -10.953125 3.261719 -11.109375 3.261719 -11.339844 C 3.261719 -11.652344 3.183594 -12.039062 2.953125 -12.585938 C 2.796875 -12.429688 2.5625 -12.273438 2.332031 -12.117188 C 2.097656 -11.964844 1.863281 -11.652344 1.632812 -11.265625 C 1.398438 -10.875 1.164062 -10.253906 1.011719 -9.476562 C 0.855469 -8.699219 0.777344 -7.535156 0.777344 -6.058594 C 0.777344 -4.816406 0.933594 -3.652344 1.164062 -2.5625 C 1.398438 -1.476562 1.863281 -0.464844 2.5625 0.464844 C 3.261719 1.398438 4.273438 2.175781 5.59375 2.875 C 6.914062 3.574219 8.699219 4.117188 10.875 4.503906 C 11.109375 4.582031 11.339844 4.582031 11.574219 4.582031 C 11.808594 4.582031 12.039062 4.582031 12.273438 4.660156 L 13.128906 4.660156 C 13.285156 4.660156 13.4375 4.660156 13.59375 4.738281 C 13.75 4.816406 13.90625 4.816406 14.058594 4.816406 C 14.292969 4.738281 14.527344 4.738281 14.835938 4.738281 C 15.148438 4.738281 15.382812 4.738281 15.613281 4.660156 C 15.691406 4.660156 15.847656 4.660156 16.003906 4.660156 C 16.15625 4.660156 16.3125 4.660156 16.390625 4.660156 C 16.546875 4.660156 16.777344 4.582031 17.167969 4.503906 C 17.554688 4.429688 17.945312 4.351562 18.332031 4.195312 C 18.722656 4.039062 19.03125 3.882812 19.34375 3.730469 L 19.808594 3.574219 C 21.050781 2.953125 21.984375 2.484375 22.605469 2.097656 C 23.226562 1.710938 23.691406 1.398438 24.003906 1.164062 C 24.3125 0.933594 24.546875 0.777344 24.625 0.699219 C 24.703125 0.621094 24.859375 0.542969 25.011719 0.464844 C 26.722656 -0.234375 28.121094 -1.085938 29.128906 -2.097656 C 30.140625 -3.105469 31.148438 -4.582031 32.082031 -6.523438 C 32.160156 -6.679688 32.238281 -6.835938 32.394531 -6.992188 C 32.546875 -7.148438 32.625 -7.300781 32.625 -7.535156 C 32.625 -7.613281 32.625 -7.613281 32.625 -7.613281 C 32.625 -7.613281 32.625 -7.691406 32.625 -7.769531 C 32.78125 -7.847656 32.9375 -8 33.09375 -8.234375 C 33.246094 -8.46875 33.324219 -8.546875 33.324219 -8.46875 C 33.324219 -8.546875 33.246094 -8.621094 33.09375 -8.777344 C 33.402344 -8.933594 33.636719 -9.167969 33.867188 -9.554688 C 34.101562 -9.941406 34.335938 -10.332031 34.566406 -10.71875 C 34.800781 -11.109375 34.957031 -11.496094 35.035156 -11.886719 C 35.113281 -12.273438 35.191406 -12.507812 35.265625 -12.585938 C 35.734375 -13.207031 36.042969 -13.984375 36.199219 -14.992188 C 36.355469 -16.003906 36.433594 -16.777344 36.433594 -17.402344 C 36.433594 -18.722656 36.199219 -19.808594 35.734375 -20.742188 C 35.265625 -21.671875 34.722656 -22.449219 34.179688 -22.992188 C 33.558594 -23.691406 32.859375 -24.238281 32.082031 -24.703125 Z M 32.859375 -24.703125 "/></g></g></g></svg>